# xmcd
#
# Track frame offsets:
# 150
# 19145
# 40945
# 58422
# 81100
# 106467
# 121967
# 141300
# 161567
# 179202
# 200000
# 221140
# 249105
# 267340
#
# Disc length: 3865 seconds
#
# Revision: 0
# Processed by: cddbd v1.5.1PL0 Copyright (c) Steve Scherf et al.
# Submitted via: Audion 3.0.2 (http://www.panic.com/audion/)
#
DISCID=d70f170e
DTITLE=P.J. Powers - Woman of Africa
DYEAR=1900
DGENRE=
TTITLE0=From a distance
TTITLE1=Love works
TTITLE2=World in union
TTITLE3=Shosholoza
TTITLE4=We are all Africans
TTITLE5=You're my world
TTITLE6=I shall be released
TTITLE7=Many rivers to cross
TTITLE8=To love somebody
TTITLE9=Whatever he does
TTITLE10=Don't break my heart
TTITLE11=Now is the time
TTITLE12=Women of Africa
TTITLE13=We are all Africans
EXTD=
EXTT0=
EXTT1=
EXTT2=
EXTT3=
EXTT4=
EXTT5=
EXTT6=
EXTT7=
EXTT8=
EXTT9=
EXTT10=
EXTT11=
EXTT12=
EXTT13=
PLAYORDER=
